<?xml version="1.0" encoding="utf-8"?>
<!-- Generator: Adobe Illustrator 27.0.1, SVG Export Plug-In . SVG Version: 6.00 Build 0)  -->
<svg version="1.1" id="Layer_1" xmlns="http://www.w3.org/2000/svg" xmlns:xlink="http://www.w3.org/1999/xlink" x="0px" y="0px"
	 viewBox="0 0 260 260" style="enable-background:new 0 0 260 260;" xml:space="preserve">
<path d="M218.1,4.7h-174C24.7,4.7,8.9,20.5,8.9,39.9v174c0,19.4,15.7,35.1,35.1,35.1h174c19.4,0,35.1-15.7,35.1-35.1v-174
	C253.2,20.5,237.5,4.7,218.1,4.7z M86.1,213.7c0,2.5-2,4.5-4.5,4.5H45.8c-2.5,0-4.5-2-4.5-4.5v-35.9c0-2.5,2-4.5,4.5-4.5h35.9
	c2.5,0,4.5,2,4.5,4.5V213.7z M86.1,145.9c0,2.5-2,4.5-4.5,4.5H45.8c-2.5,0-4.5-2-4.5-4.5v-35.9c0-2.5,2-4.5,4.5-4.5h35.9
	c2.5,0,4.5,2,4.5,4.5V145.9z M153.5,213.7c0,2.5-2,4.5-4.5,4.5h-35.9c-2.5,0-4.5-2-4.5-4.5v-35.9c0-2.5,2-4.5,4.5-4.5H149
	c2.5,0,4.5,2,4.5,4.5V213.7z M153.5,144.8c0,2.5-2,4.5-4.5,4.5h-35.9c-2.5,0-4.5-2-4.5-4.5v-35.9c0-2.5,2-4.5,4.5-4.5H149
	c2.5,0,4.5,2,4.5,4.5V144.8z M220.5,213.7c0,2.5-2,4.5-4.5,4.5h-35.9c-2.5,0-4.5-2-4.5-4.5v-35.9c0-2.5,2-4.5,4.5-4.5h35.9
	c2.5,0,4.5,2,4.5,4.5V213.7z M220.5,144.8c0,2.5-2,4.5-4.5,4.5h-35.9c-2.5,0-4.5-2-4.5-4.5v-35.9c0-2.5,2-4.5,4.5-4.5h35.9
	c2.5,0,4.5,2,4.5,4.5V144.8z M222.5,76.9c0,2.5-2,4.5-4.5,4.5H45.8c-2.5,0-4.5-2-4.5-4.5V41c0-2.5,2-4.5,4.5-4.5H218
	c2.5,0,4.5,2,4.5,4.5V76.9z"/>
</svg>
