<?xml version="1.0" encoding="utf-8"?>
<!-- Generator: Adobe Illustrator 25.4.0, SVG Export Plug-In . SVG Version: 6.00 Build 0)  -->
<svg version="1.1" id="Layer_1" xmlns="http://www.w3.org/2000/svg" xmlns:xlink="http://www.w3.org/1999/xlink" x="0px" y="0px"
	 viewBox="0 0 422 290" style="enable-background:new 0 0 422 290;" xml:space="preserve">
<style type="text/css">
	.st0{clip-path:url(#SVGID_00000097461545822605177210000003917458863930467241_);}
	.st1{opacity:0.3;fill:#FFFFFF;fill-opacity:0.1;enable-background:new    ;}
	.st2{fill:#FFFFFF;fill-opacity:0.1;}
	.st3{fill:#FFFFFF;fill-opacity:5.000000e-02;}
	.st4{fill:#B20000;}
	.st5{fill:#F97D7D;fill-opacity:0.5;}
	.st6{fill:#F97D7D;}
	.st7{fill:url(#SVGID_00000168828165641821034830000007304687824060804001_);}
	
		.st8{fill:none;stroke:url(#SVGID_00000104679460299858051180000012538331328000153985_);stroke-width:12.9614;stroke-miterlimit:10;}
	
		.st9{fill:none;stroke:url(#SVGID_00000086665414239285155250000015466205140319506858_);stroke-width:12.9614;stroke-miterlimit:10;}
	
		.st10{fill:none;stroke:url(#SVGID_00000110463612953446137450000009974217767464182662_);stroke-width:12.9614;stroke-miterlimit:10;}
</style>
<g>
	<defs>
		<rect id="SVGID_1_" y="-150" width="440" height="440"/>
	</defs>
	<clipPath id="SVGID_00000067200998455838905460000009599242427679991740_">
		<use xlink:href="#SVGID_1_"  style="overflow:visible;"/>
	</clipPath>
	<g style="clip-path:url(#SVGID_00000067200998455838905460000009599242427679991740_);">
		<path class="st1" d="M220.1,290.2c121.6,0,220.1-98.5,220.1-220.1c0-121.6-98.5-220.1-220.1-220.1C98.5-150,0-51.5,0,70.1
			C0,191.7,98.5,290.2,220.1,290.2z"/>
		<path class="st1" d="M220.1,246.5c97.4,0,176.4-79,176.4-176.4c0-97.4-79-176.4-176.4-176.4c-97.4,0-176.4,79-176.4,176.4
			C43.7,167.5,122.7,246.5,220.1,246.5z"/>
		<path class="st2" d="M97,35.3c-0.2,0.7-0.4,1.3-0.4,2c-2.5,9.1-3.8,18.3-4.2,27.2c-0.4,10,0.4,20.1,2.2,29.7
			c8.9,45.9,42.8,85.2,91,98.8c39.2,11.2,79.6,2.5,110.2-19.8c13.8-10,25.6-23,34.6-37.9c5.6-9.4,10-19.6,13.2-30.6
			c2.9-10,4.5-20.1,4.7-29.9c0.7-17.8-2.5-35.5-8.7-51.5c-14-35.9-44.4-65.1-84.3-76.3c-43.5-12.3-87.6-0.7-119.1,26.5
			C117.7-10.6,103.9,10.3,97,35.3z"/>
		<path class="st3" d="M97,35.3c-0.2,0.7-0.4,1.3-0.4,2l251.3,37.5c0.7-17.8-2.5-35.5-8.7-51.5L136-26.5
			C117.7-10.6,103.9,10.3,97,35.3z"/>
		<path class="st3" d="M92.3,64.8c-0.4,10,0.4,20.1,2.2,29.7l200.9,78.9c13.8-10,25.6-23,34.6-37.9L92.3,64.8z"/>
		<path class="st4" d="M103.5-20.9c-2,7.4-1.1,14.9,2.2,21.2c3.6,6.7,9.8,12,17.6,14.3c15.2,4.2,31.2-4.7,35.5-19.8
			c1.1-3.6,1.3-7.4,0.9-10.9c-1.1-11.4-9.1-21.4-20.7-24.5C123.6-45,107.7-36.1,103.5-20.9z"/>
		<path class="st5" d="M106.6-10.4c-1.1,3.6-1.3,7.4-0.9,10.9c3.6,6.7,9.8,12,17.6,14.3c15.2,4.2,31.2-4.7,35.5-19.8
			c1.1-3.6,1.3-7.4,0.9-10.9c-3.6-6.7-9.8-12-17.6-14.3C126.7-34.7,110.8-25.8,106.6-10.4z"/>
		<path class="st4" d="M281.4,104.2c-3.1,5.4-3.8,11.2-2.5,16.7c1.3,5.8,5.1,11.2,10.7,14.3c10.9,6.2,24.8,2.5,31-8.3
			c1.6-2.7,2.5-5.4,2.9-8.3c1.3-8.9-2.9-18.1-11.2-23C301.4,89.7,287.6,93.4,281.4,104.2z"/>
		<path class="st5" d="M281.6,112.9c-1.6,2.7-2.5,5.4-2.9,8.3c1.3,5.8,5.1,11.2,10.7,14.3c10.9,6.2,24.8,2.5,31-8.3
			c1.6-2.7,2.5-5.4,2.9-8.3c-1.3-5.8-5.1-11.2-10.7-14.3C301.9,98.1,288,101.9,281.6,112.9z"/>
		<path class="st4" d="M250.7,130.8c-3.1,2.2-5.1,5.4-5.8,8.7c-0.9,3.6-0.2,7.6,2.2,10.9c4.5,6.5,13.2,8.3,19.8,3.8
			c1.6-1.1,2.9-2.5,3.8-3.8c3.1-4.7,3.3-10.9,0-15.8C265.8,127.9,257.1,126.3,250.7,130.8z"/>
		<path class="st5" d="M248.4,135.7c-1.6,1.1-2.9,2.5-3.8,3.8c-0.9,3.6-0.2,7.6,2.2,10.9c4.5,6.5,13.2,8.3,19.8,3.8
			c1.6-1.1,2.9-2.5,3.8-3.8c0.9-3.6,0.2-7.6-2.2-10.9C263.8,132.8,254.9,131.2,248.4,135.7z"/>
		<path class="st4" d="M265.3-24.1c-0.9,3.3-0.4,6.7,0.9,9.4c1.6,2.9,4.2,5.4,7.8,6.2c6.7,2,13.8-2,15.8-8.9
			c0.4-1.6,0.7-3.3,0.4-4.9c-0.4-5.1-4-9.6-9.1-10.9C274.2-34.8,267.1-30.8,265.3-24.1z"/>
		<path class="st6" d="M266.7-19.5c-0.4,1.6-0.7,3.3-0.4,4.9c1.6,2.9,4.2,5.4,7.8,6.2c6.7,2,13.8-2,15.8-8.9
			c0.4-1.6,0.7-3.3,0.4-4.9c-1.6-2.9-4.2-5.4-7.8-6.2C275.6-30.2,268.4-26.4,266.7-19.5z"/>
		<path class="st4" d="M122.2,124.5c-0.4,1.3-0.2,2.7,0.4,4c0.7,1.3,1.8,2.2,3.3,2.7c2.9,0.9,5.8-0.9,6.5-3.6c0.2-0.7,0.2-1.3,0.2-2
			c-0.2-2-1.8-4-3.8-4.5C126,120.1,123.1,121.8,122.2,124.5z"/>
		<path class="st5" d="M122.9,126.5c-0.2,0.7-0.2,1.3-0.2,2c0.7,1.3,1.8,2.2,3.3,2.7c2.9,0.9,5.8-0.9,6.5-3.6c0.2-0.7,0.2-1.3,0.2-2
			c-0.7-1.3-1.8-2.2-3.3-2.7C126.4,122.1,123.5,123.6,122.9,126.5z"/>
		<path class="st4" d="M169.5,123.2c-1.3,0.2-2.7,0.9-3.3,2c-0.9,1.1-1.3,2.5-1.1,4c0.4,2.9,3.1,4.9,6,4.5c0.7,0,1.3-0.4,1.8-0.7
			c1.8-1.1,2.9-3.1,2.5-5.4C175.1,124.7,172.4,122.7,169.5,123.2z"/>
		<path class="st5" d="M167.9,124.5c-0.7,0-1.3,0.4-1.8,0.7c-0.9,1.1-1.3,2.5-1.1,4c0.4,2.9,3.1,4.9,6,4.5c0.7,0,1.3-0.4,1.8-0.7
			c0.9-1.1,1.3-2.5,1.1-4C173.5,126.1,170.8,124.1,167.9,124.5z"/>
	</g>
</g>
<g>
	<g>
		<g>
			
				<linearGradient id="SVGID_00000153664978803132557430000013319460162834211497_" gradientUnits="userSpaceOnUse" x1="174.2548" y1="37.3678" x2="177.1349" y2="42.733">
				<stop  offset="0" style="stop-color:#F13DDB"/>
				<stop  offset="1" style="stop-color:#F7941D"/>
			</linearGradient>
			<path style="fill:url(#SVGID_00000153664978803132557430000013319460162834211497_);" d="M174.6,44c0.6-2.7,1.3-5.3,2.2-7.9
				L174.6,44z"/>
			
				<linearGradient id="SVGID_00000004514621161457373590000000467462022687681675_" gradientUnits="userSpaceOnUse" x1="234.8075" y1="-6.8908" x2="256.3572" y2="117.6933">
				<stop  offset="0" style="stop-color:#F13DDB"/>
				<stop  offset="0.4721" style="stop-color:#FF48ED"/>
				<stop  offset="1" style="stop-color:#554CFF"/>
			</linearGradient>
			
				<path style="fill:none;stroke:url(#SVGID_00000004514621161457373590000000467462022687681675_);stroke-width:12.9614;stroke-miterlimit:10;" d="
				M290.5,55.9c0,32.3-26.2,58.5-58.5,58.5c-7.2,0-14.1-1.3-20.4-3.7L243.2-1.4l-1.7-0.5C269.3,2.7,290.5,26.9,290.5,55.9z"/>
			
				<linearGradient id="SVGID_00000181045338534618177890000008189444267665836706_" gradientUnits="userSpaceOnUse" x1="200.9455" y1="51.3368" x2="171.8483" y2="149.6548">
				<stop  offset="5.586592e-03" style="stop-color:#F54F99"/>
				<stop  offset="0.9944" style="stop-color:#F89B40"/>
			</linearGradient>
			
				<path style="fill:none;stroke:url(#SVGID_00000181045338534618177890000008189444267665836706_);stroke-width:12.9614;stroke-miterlimit:10;" d="
				M211.5,110.8l-3.3,12.5c-1.7,6.3-7.4,10.7-13.9,10.7h-44.7l25-89.9c-0.8,3.8-1.2,7.8-1.2,11.8
				C173.4,81.1,189.2,102.5,211.5,110.8z"/>
		</g>
	</g>
	
		<linearGradient id="SVGID_00000122705941704650172630000007836617604211900587_" gradientUnits="userSpaceOnUse" x1="203.3307" y1="-5.1299" x2="224.5937" y2="117.797">
		<stop  offset="0" style="stop-color:#F13DEB"/>
		<stop  offset="0.4832" style="stop-color:#F470A9"/>
		<stop  offset="1" style="stop-color:#F89C63"/>
	</linearGradient>
	
		<path style="fill:none;stroke:url(#SVGID_00000122705941704650172630000007836617604211900587_);stroke-width:12.9614;stroke-miterlimit:10;" d="
		M243.2-1.4l-31.7,112.2c-22.3-8.3-38.1-29.7-38.1-54.9c0-4,0.4-8,1.2-11.8c0,0,0-0.1,0-0.1l2.2-7.9c0,0,0-0.1,0-0.1
		c0.6-1.7,1.3-3.4,2.1-5.1c0.1-0.3,0.3-0.6,0.4-0.9c1.5-3,3.2-5.9,5.2-8.6c0.2-0.3,0.4-0.6,0.7-0.9c0.7-0.9,1.4-1.7,2.1-2.6
		c0.4-0.5,0.8-1,1.3-1.4c3.3-3.6,7-6.8,11.1-9.5c0.6-0.4,1.2-0.8,1.8-1.2c1-0.6,1.9-1.1,2.9-1.7c0.5-0.3,1.1-0.6,1.6-0.8
		c7.8-3.8,16.5-6,25.8-6c3.3,0,6.5,0.3,9.6,0.8L243.2-1.4z"/>
</g>
</svg>
